<?xml version="1.0" standalone="no"?><!DOCTYPE svg PUBLIC "-//W3C//DTD SVG 1.1//EN" "http://www.w3.org/Graphics/SVG/1.1/DTD/svg11.dtd"><svg t="1772954126289" class="icon" viewBox="0 0 1024 1024" version="1.1" xmlns="http://www.w3.org/2000/svg" p-id="40649" xmlns:xlink="http://www.w3.org/1999/xlink" width="200" height="200"><path d="M83.968 285.184h797.184c26.112 0 47.616 20.992 47.616 47.616v461.312c0 52.224-41.984 94.72-94.72 94.72H179.712c-52.224 0-94.72-42.496-94.72-95.232l-1.024-508.416z" fill="#F9903A" p-id="40650" data-spm-anchor-id="a313x.search_index.0.i0.25ba3a81MqFzVd" class=""></path><path d="M644.608 284.672H83.968V193.024c0-37.376 30.72-68.096 68.096-68.096h326.144c17.408 0 34.304 8.192 45.568 21.504l120.832 138.24z" fill="#F9903A" opacity=".65" p-id="40651" data-spm-anchor-id="a313x.search_index.0.i1.25ba3a81MqFzVd" class=""></path><path d="M541.184 765.952c-45.056-33.28-71.68-86.528-71.168-142.848 0-98.304 79.872-178.688 178.688-178.688 17.92-0.512 35.84 2.56 52.736 8.192 7.168 3.072 14.336 2.56 20.992-1.024 8.192-3.584 13.824-10.752 15.872-18.432 3.072-7.168 2.56-14.336-1.024-20.992-4.096-8.192-10.752-13.824-18.432-16.384l-1.024-0.512c-22.528-5.12-46.592-8.192-70.144-8.704-130.56 0-236.544 105.984-236.544 237.056 0 49.152 15.36 96.768 43.52 136.192h-14.848c-15.872 0-28.672 13.312-28.672 28.672s12.8 28.672 28.672 28.672h82.944c12.8 0 23.04-9.216 26.112-20.48 4.608-10.24 2.048-23.552-7.68-30.72z m315.392-280.064c15.872 0.512 29.184-11.776 30.208-27.648 0.512-15.872-11.776-29.184-27.648-30.208h-85.504c-12.288 1.024-22.528 8.192-27.648 18.944l-0.512 1.536c-3.072 10.752 0 25.088 11.776 31.232 45.056 33.28 71.168 86.528 70.656 142.848 0 98.304-79.872 178.688-178.688 178.688-17.92 0.512-35.84-2.56-52.736-8.192-7.168-3.072-14.336-2.56-20.992 1.024-8.192 4.096-13.824 10.752-16.384 18.432l-1.024 1.536v5.632c0.512 12.288 8.192 22.528 18.944 27.648l1.536 0.512c22.528 7.168 46.592 10.752 70.656 10.752 130.56 0 236.032-105.472 236.032-236.544 0-49.152-15.36-97.28-43.52-136.704l14.848 0.512z" fill="#FFFFFF" p-id="40652"></path><path d="M731.648 641.536c15.872 0 28.672-13.312 28.672-28.672 0-15.872-12.8-28.672-28.672-28.672h-26.112l28.672-36.864c9.216-13.312 6.656-30.208-6.144-40.448-12.8-9.216-30.208-6.656-40.448 6.144l-39.424 51.2-39.424-51.2c-4.096-6.144-10.24-10.752-16.384-11.264-15.872-3.072-30.72 7.68-33.792 23.04-1.536 8.192 0.512 15.872 5.12 22.016l28.672 36.864h-26.624c-15.872 0-28.672 12.8-28.672 28.672 0 16.384 12.8 28.672 28.672 28.672h54.272v25.6h-54.272c-15.872 0.512-28.16 14.336-27.648 30.208 0.512 14.848 12.8 26.624 27.648 27.648h54.272v23.04c0.512 15.872 14.336 28.16 30.208 27.648 14.848-0.512 26.624-12.8 27.648-27.648v-23.04H732.16c15.872-0.512 28.16-14.336 27.648-30.208-0.512-14.848-12.8-26.624-27.648-27.648h-54.272v-25.6l53.76 0.512z" fill="#FFFFFF" p-id="40653"></path></svg>