<?xml version="1.0" standalone="no"?><!DOCTYPE svg PUBLIC "-//W3C//DTD SVG 1.1//EN" "http://www.w3.org/Graphics/SVG/1.1/DTD/svg11.dtd"><svg t="1772954373959" class="icon" viewBox="0 0 1024 1024" version="1.1" xmlns="http://www.w3.org/2000/svg" p-id="50254" id="mx_n_1772954373960" xmlns:xlink="http://www.w3.org/1999/xlink" width="200" height="200"><path d="M1015.466667 653.653333c0 199.68-162.133333 361.813333-361.813334 361.813334h-283.306666c-199.68 0-361.813333-162.133333-361.813334-361.813334v-283.306666c0-199.68 162.133333-361.813333 361.813334-361.813334h281.6c201.386667 0 363.52 162.133333 363.52 361.813334v283.306666z" fill="#F3C31F" p-id="50255"></path><path d="M653.653333 450.56v32.426667h-112.64v63.146666h112.64v32.426667h-112.64v100.693333h-56.32v-100.693333h-112.64v-32.426667h112.64v-63.146666h-112.64v-32.426667h93.866667l-88.746667-104.106667h63.146667l71.68 83.626667 71.68-83.626667h63.146667l-88.746667 104.106667h95.573333z" fill="#FFFFFF" p-id="50256"></path><path d="M512 822.613333c-170.666667 0-310.613333-139.946667-310.613333-310.613333s139.946667-310.613333 310.613333-310.613333 310.613333 139.946667 310.613333 310.613333-139.946667 310.613333-310.613333 310.613333z m0-604.16c-162.133333 0-293.546667 131.413333-293.546667 293.546667s131.413333 293.546667 293.546667 293.546667 293.546667-131.413333 293.546667-293.546667-131.413333-293.546667-293.546667-293.546667z" fill="#FFFFFF" p-id="50257"></path></svg>